# xmcd CD database file
#
# Track frame offsets:
#	150
#	18285
#	36585
#	54812
#	74076
#	91518
#	112774
#	132376
#	148574
#	167221
#
# Disc length: 2470 seconds
#
# Revision: 0
# Processed by: cddbd v1.5.2PL0 Copyright (c) Steve Scherf et al.
# Submitted via: jetAudio 7
#
DISCID=8209a40a
DTITLE=Hevia - Étnico ma non troppo
DYEAR=1900
DGENRE=Folk
TTITLE0=Taramundi 130
TTITLE1=Carretera d'Avilés
TTITLE2=La Carriola
TTITLE3=Pericote
TTITLE4=Tirador
TTITLE5=El Torques
TTITLE6=San Xuan
TTITLE7=Pasu Pasucais
TTITLE8=Étnico ma non troppo
TTITLE9=Entremediu
EXTD=
EXTT0=
EXTT1=
EXTT2=
EXTT3=
EXTT4=
EXTT5=
EXTT6=
EXTT7=
EXTT8=
EXTT9=
PLAYORDER=
